# xmcd
#
# Track frame offsets: 
#        150
#        21534
#        47938
#        68723
#        79667
#        102210
#        115196
#        125537
#        137443
#        149370
#
# Disc length: 2315 seconds
#
# Revision: 0
# Processed by: cddbd v1.5.2PL0 Copyright (c) Steve Scherf et al.
# Submitted via: ExactAudioCopy v0.95b4
#
DISCID=8b09090a
DTITLE=Various Artist - Best of Soul R&B Disc3
DYEAR=2007
DGENRE=R&B
TTITLE0=Marvin Gaye-Inner City Blues
TTITLE1=The Stylistics-You Make Me Feel Brand New
TTITLE2=The Spinners-Could It Be I'm Falling In Love
TTITLE3=Brook Benton-Endlessly
TTITLE4=James Brown-Prisoner Of Love
TTITLE5=The Coasters-Searchin'
TTITLE6=The Crystals-Uptown
TTITLE7=Fats Domino-I Wanna Walk You Home
TTITLE8=The Drifters-This Magic Moment
TTITLE9=Kool and The Gang-Cherish
EXTD=
EXTT0=
EXTT1=
EXTT2=
EXTT3=
EXTT4=
EXTT5=
EXTT6=
EXTT7=
EXTT8=
EXTT9=
PLAYORDER=
